<svg xmlns="http://www.w3.org/2000/svg" viewBox="0 0 64 64" width="64" height="64"><g stroke="#FFFFFF" stroke-width="8" stroke-linejoin="round" stroke-linecap="round" fill="#FFFFFF"><ellipse cx="32" cy="50" rx="27" ry="6" fill="#8BDB7A"/><rect x="5" y="31" width="54" height="17" rx="3" fill="#F4A06A"/><rect x="24" y="13" width="16" height="35" rx="2" fill="#FFD9A8"/><path d="M21 13L32 4L43 13Z" fill="#E8604C"/><circle cx="32" cy="22" r="5" fill="#FFFFFF"/><path d="M32 22V19M32 22H35" /><path d="M28 48V41A4 4 0 0 1 36 41V48Z" fill="#8FD3F0"/><rect x="10" y="36" width="8" height="6" rx="1" fill="#FFF3D1"/><rect x="46" y="36" width="8" height="6" rx="1" fill="#FFF3D1"/></g><g stroke="#2B2140" stroke-width="2.4" stroke-linejoin="round" stroke-linecap="round"><ellipse cx="32" cy="50" rx="27" ry="6" fill="#8BDB7A"/><rect x="5" y="31" width="54" height="17" rx="3" fill="#F4A06A"/><rect x="24" y="13" width="16" height="35" rx="2" fill="#FFD9A8"/><path d="M21 13L32 4L43 13Z" fill="#E8604C"/><circle cx="32" cy="22" r="5" fill="#FFFFFF"/><path d="M32 22V19M32 22H35" fill="none"/><path d="M28 48V41A4 4 0 0 1 36 41V48Z" fill="#8FD3F0"/><rect x="10" y="36" width="8" height="6" rx="1" fill="#FFF3D1"/><rect x="46" y="36" width="8" height="6" rx="1" fill="#FFF3D1"/></g></svg>