<svg xmlns="http://www.w3.org/2000/svg" viewBox="0 0 64 64" width="64" height="64"><g stroke="#FFFFFF" stroke-width="8" stroke-linejoin="round" stroke-linecap="round" fill="#FFFFFF"><ellipse cx="32" cy="50" rx="27" ry="6" fill="#8BDB7A"/><rect x="16" y="42" width="32" height="6" rx="1" fill="#F2D9A2"/><rect x="20" y="37" width="24" height="6" rx="1" fill="#FFF3D1"/><path d="M26 37L28 12H36L38 37Z" fill="#E6DFD0"/><path d="M28 12L32 5L36 12Z" fill="#FFC93C"/><circle cx="32" cy="24" r="3" fill="#E8604C"/></g><g stroke="#2B2140" stroke-width="2.4" stroke-linejoin="round" stroke-linecap="round"><ellipse cx="32" cy="50" rx="27" ry="6" fill="#8BDB7A"/><rect x="16" y="42" width="32" height="6" rx="1" fill="#F2D9A2"/><rect x="20" y="37" width="24" height="6" rx="1" fill="#FFF3D1"/><path d="M26 37L28 12H36L38 37Z" fill="#E6DFD0"/><path d="M28 12L32 5L36 12Z" fill="#FFC93C"/><circle cx="32" cy="24" r="3" fill="#E8604C"/></g></svg>